#!OML:ASF H:\BabyWalks\Project 1\Capture day 1\Session 1\baby.ASF
:FULLY-SPECIFIED
:DEGREES
397
root 14.7599 17.6661 -3.99894 3.27935 36.0996 -2.86293
lowerback 22.6336 -2.43273 2.94968
upperback 4.87418 -2.18007 1.82476
thorax -7.30854 -1.03034 0.911791
lowerneck -4.46603 2.33877 6.93198
upperneck -0.154195 2.91598 -9.21106
head 1.01923 1.36634 -4.21322
rclavicle 2.73329e-014 -1.72943e-014
rhumerus -63.5515 3.57122 -74.2673
rradius 33.4881
rwrist 10.9002
rhand 9.48852 -20.5131
rfingers 7.12502
rthumb 34.6411 -47.1522
lclavicle 2.73329e-014 -1.72943e-014
lhumerus -39.6268 -14.4171 78.3246
lradius 80.5876
lwrist -1.86113
lhand -19.7164 7.85811
lfingers 7.12502
lthumb 6.61356 37.7348
rfemur -23.2049 1.02446 20.6143
rtibia 28.649
rfoot -9.73968 -3.74069
rtoes -0.774994
lfemur -14.9843 -4.66326 -10.349
ltibia 53.9768
lfoot -5.87991 -28.8801
ltoes 4.16979
398
root 14.8049 17.6332 -3.86271 2.45048 36.2257 -3.89476
lowerback 22.75 -2.3763 3.89384
upperback 5.03099 -1.8402 2.25666
thorax -7.20701 -0.875515 0.74811
lowerneck -4.38812 2.25465 7.16663
upperneck -0.482833 2.78563 -9.66573
head 0.901437 1.30203 -4.42912
rclavicle -9.83984e-015 2.06736e-014
rhumerus -62.8973 3.7439 -74.3583
rradius 33.2827
rwrist 11.3813
rhand 9.94481 -20.4592
rfingers 7.12502
rthumb 35.074 -46.998
lclavicle -9.83984e-015 2.06736e-014
lhumerus -40.3627 -14.0633 79.0317
lradius 79.2638
lwrist -2.45098
lhand -19.5478 8.32932
lfingers 7.12502
lthumb 6.77631 38.2009
rfemur -22.7816 0.746455 21.7857
rtibia 29.2836
rfoot -10.317 -3.55614
rtoes -0.558643
lfemur -16.1347 -4.35909 -9.27925
ltibia 56.896
lfoot -5.97574 -28.2248
ltoes 4.58082
399
root 14.8518 17.6 -3.72707 1.7436 36.2354 -4.8108
lowerback 22.8254 -2.28198 4.69348
upperback 5.16426 -1.49154 2.64335
thorax -7.10115 -0.713539 0.614627
lowerneck -4.32932 2.18913 7.44155
upperneck -0.748256 2.67886 -10.0901
head 0.808699 1.24919 -4.64346
rclavicle 1.25234e-014 3.57812e-015
rhumerus -62.1329 3.93995 -74.4469
rradius 33.0654
rwrist 11.9986
rhand 10.3272 -20.4013
rfingers 7.12502
rthumb 35.4366 -46.8543
lclavicle 1.25234e-014 3.57812e-015
lhumerus -41.1182 -13.6788 79.6981
lradius 77.7883
lwrist -3.06438
lhand -19.349 8.74757
lfingers 7.12502
lthumb 6.96825 38.6129
rfemur -22.4385 0.582381 22.8395
rtibia 29.9458
rfoot -10.9258 -3.41405
rtoes -0.365023
lfemur -17.2889 -3.96927 -8.35125
ltibia 59.6794
lfoot -6.39624 -27.4129
ltoes 5.05347
400
root 14.9004 17.5681 -3.59137 1.21969 36.1512 -5.51562
lowerback 22.8503 -2.14494 5.28601
upperback 5.27265 -1.14664 2.96152
thorax -6.98925 -0.550352 0.524911
lowerneck -4.33598 2.13737 7.67426
upperneck -0.875178 2.59159 -10.8043
head 0.704487 1.19626 -4.44418
rclavicle -3.43897e-014 2.78299e-015
rhumerus -61.2634 4.10151 -74.487
rradius 32.8401
rwrist 12.7631
rhand 10.5677 -20.2856
rfingers 7.12502
rthumb 35.6646 -46.6838
lclavicle -3.43897e-014 2.78299e-015
lhumerus -41.8685 -13.2686 80.3113
lradius 76.147
lwrist -3.69502
lhand -19.0942 9.08041
lfingers 7.12502
lthumb 7.21426 38.9374
rfemur -22.1868 0.518447 23.6951
rtibia 30.6646
rfoot -11.6428 -3.3151
rtoes -0.415458
lfemur -18.4373 -3.49971 -7.65001
ltibia 62.2672
lfoot -7.02759 -26.5301
ltoes 5.51912
401
root 14.9499 17.537 -3.45553 0.88873 35.9997 -5.97951
lowerback 22.8467 -1.97001 5.64543
upperback 5.34566 -0.816199 3.21092
thorax -6.89727 -0.391935 0.497311
lowerneck -4.3396 2.10202 7.9605
upperneck -0.963922 2.52859 -11.1453
head 0.682827 1.16293 -4.59857
rclavicle 6.99722e-014 -2.26615e-014
rhumerus -60.3159 4.21717 -74.4539
rradius 32.6284
rwrist 13.6529
rhand 10.6098 -20.1683
rfingers 7.12502
rthumb 35.7045 -46.5569
lclavicle 6.99722e-014 -2.26615e-014
lhumerus -42.6153 -12.8155 80.8706
lradius 74.3341
lwrist -4.35475
lhand -18.7615 9.29039
lfingers 7.12502
lthumb 7.53535 39.1362
rfemur -22.0146 0.545951 24.3277
rtibia 31.4401
rfoot -12.4026 -3.27809
rtoes -0.472841
lfemur -19.5784 -2.96054 -7.20005
ltibia 64.6217
lfoot -7.76781 -25.6807
ltoes 5.91665
402
root 14.9999 17.5078 -3.31977 0.737762 35.8087 -6.21142
lowerback 22.8134 -1.76217 5.80163
upperback 5.38839 -0.499829 3.389
thorax -6.82212 -0.238943 0.51164
lowerneck -4.37345 2.07539 8.22395
upperneck -0.962364 2.48167 -11.4179
head 0.692291 1.13605 -4.7274
rclavicle 7.53394e-014 -1.59028e-015
rhumerus -59.2935 4.21787 -74.3152
rradius 32.4387
rwrist 14.6174
rhand 10.3963 -20.0529
rfingers 7.12502
rthumb 35.5021 -46.4902
lclavicle 7.53394e-014 -1.59028e-015
lhumerus -43.3333 -12.3476 81.3716
lradius 72.3553
lwrist -5.02785
lhand -18.3302 9.36109
lfingers 7.12502
lthumb 7.95163 39.1915
rfemur -21.9035 0.64627 24.7445
rtibia 32.2536
rfoot -13.1757 -3.2812
rtoes -0.445951
lfemur -20.7166 -2.37884 -6.99562
ltibia 66.7196
lfoot -8.53653 -24.9486
ltoes 6.2243
403
root 15.0507 17.4826 -3.18391 0.718007 35.598 -6.26909
lowerback 22.7597 -1.53523 5.81468
upperback 5.40241 -0.198895 3.50805
thorax -6.76885 -0.0929866 0.547789
lowerneck -4.42611 2.05172 8.44445
upperneck -0.884094 2.444 -11.6175
head 0.726135 1.11276 -4.82604
rclavicle 3.29983e-014 -7.95139e-015
rhumerus -58.217 4.07782 -74.0629
rradius 32.2886
rwrist 15.6121
rhand 9.82488 -19.9361
rfingers 7.12502
rthumb 34.9602 -46.5014
lclavicle 3.29983e-014 -7.95139e-015
lhumerus -44.0277 -11.8662 81.8154
lradius 70.2418
lwrist -5.69204
lhand -17.7844 9.27752
lfingers 7.12502
lthumb 8.4784 39.0873
rfemur -21.813 0.794474 24.9964
rtibia 33.065
rfoot -13.9757 -3.31658
rtoes -0.464212
lfemur -21.8388 -1.78121 -6.98962
ltibia 68.5433
lfoot -9.27728 -24.3922
ltoes 6.41535
404
root 15.102 17.461 -3.04887 0.776654 35.3873 -6.21943
lowerback 22.709 -1.30059 5.74943
upperback 5.38615 0.091315 3.58477
thorax -6.75203 0.0472274 0.586297
lowerneck -4.49347 2.02703 8.61675
upperneck -0.741772 2.41005 -11.7514
head 0.779567 1.09059 -4.89605
rclavicle 4.01545e-014 -3.10104e-014
rhumerus -57.111 3.77821 -73.7018
rradius 32.1979
rwrist 16.5643
rhand 8.8199 -19.835
rfingers 7.12502
rthumb 34.0062 -46.6174
lclavicle 4.01545e-014 -3.10104e-014
lhumerus -44.7061 -11.383 82.2078
lradius 68.0376
lwrist -6.3062
lhand -17.0991 9.03316
lfingers 7.12502
lthumb 9.13967 38.8151
rfemur -21.711 0.96903 25.143
rtibia 33.8321
rfoot -14.7581 -3.396
rtoes -0.489872
lfemur -22.9459 -1.19191 -7.12185
ltibia 70.0902
lfoot -9.95306 -24.0354
ltoes 6.44449
405
root 15.1545 17.4429 -2.91526 0.859346 35.1762 -6.121
lowerback 22.6831 -1.06769 5.66726
upperback 5.34514 0.375622 3.62793
thorax -6.77641 0.183388 0.600491
lowerneck -4.55157 1.99499 8.73544
upperneck -0.569778 2.37064 -11.8216
head 0.837707 1.06618 -4.93768
rclavicle -1.11319e-014 -3.73715e-014
rhumerus -55.9989 3.32621 -73.2649
rradius 32.1888
rwrist 17.3715
rhand 7.31893 -19.7399
rfingers 7.12502
rthumb 32.5792 -46.8279
lclavicle -1.11319e-014 -3.73715e-014
lhumerus -45.3848 -10.903 82.548
lradius 65.8037
lwrist -6.81619
lhand -16.2468 8.65288
lfingers 7.12502
lthumb 9.96205 38.3971
rfemur -21.5577 1.1515 25.2353
rtibia 34.5161
rfoot -15.5088 -3.48338
rtoes -0.52017
lfemur -24.0168 -0.628771 -7.34386
ltibia 71.3606
lfoot -10.5516 -23.8533
ltoes 6.2912
406
root 15.2079 17.428 -2.78381 0.940882 34.9746 -6.01556
lowerback 22.6904 -0.841911 5.60558
upperback 5.28127 0.657375 3.64753
thorax -6.8435 0.316698 0.578753
lowerneck -4.59495 1.95388 8.80835
upperneck -0.396827 2.3215 -11.8408
head 0.891207 1.0379 -4.95631
rclavicle 4.77083e-014 7.95139e-016
rhumerus -54.9018 2.73816 -72.7936
rradius 32.2866
rwrist 17.9681
rhand 5.29734 -19.6705
rfingers 7.12502
rthumb 30.6535 -47.1374
lclavicle 4.77083e-014 7.95139e-016
lhumerus -46.068 -10.4441 82.8376
lradius 63.5943
lwrist -7.17427
lhand -15.2094 8.17945
lfingers 7.12502
lthumb 10.9628 37.8732
rfemur -21.3474 1.32027 25.3123
rtibia 35.0997
rfoot -16.2088 -3.57497
rtoes -0.585502
lfemur -25.0575 -0.105246 -7.61674
ltibia 72.3621
lfoot -11.0905 -23.789
ltoes 5.91819
407
root 15.262 17.4157 -2.65539 1.00135 34.7755 -5.93598
lowerback 22.7415 -0.62366 5.59153
upperback 5.19752 0.943661 3.64985
thorax -6.95431 0.450131 0.51001
lowerneck -4.61969 1.903 8.84899
upperneck -0.244491 2.25989 -11.8246
head 0.933333 1.00462 -4.95922
rclavicle 5.40694e-014 1.19271e-014
rhumerus -53.8429 2.05506 -72.3434
rradius 32.5197
rwrist 18.2817
rhand 2.76862 -19.6342
rfingers 7.12502
rthumb 28.2394 -47.5262
lclavicle 5.40694e-014 1.19271e-014
lhumerus -46.7634 -10.0157 83.0785
lradius 61.4615
lwrist -7.35058
lhand -13.9759 7.69157
lfingers 7.12502
lthumb 12.1524 37.3186
rfemur -21.0814 1.47429 25.4044
rtibia 35.5737
rfoot -16.8462 -3.66192
rtoes -0.677459
lfemur -26.0693 0.380635 -7.90854
ltibia 73.1012
lfoot -11.6018 -23.7928
ltoes 5.36524
408
root 15.3169 17.4058 -2.53035 1.04391 34.5806 -5.89155
lowerback 22.8266 -0.417748 5.62875
upperback 5.09672 1.22848 3.63832
thorax -7.09998 0.580716 0.396949
lowerneck -4.62817 1.84604 8.8725
upperneck -0.124592 2.18938 -11.7944
head 0.961975 0.967995 -4.95545
rclavicle -2.98177e-014 4.77083e-015
rhumerus -52.835 1.34351 -71.972
rradius 32.9144
rwrist 18.2591
rhand -0.23841 -19.6209
rfingers 7.12502
rthumb 25.362 -47.9543
lclavicle -2.98177e-014 4.77083e-015
lhumerus -47.4739 -9.61713 83.2714
lradius 59.4373
lwrist -7.35337
lhand -12.5468 7.27131
lfingers 7.12502
lthumb 13.5301 36.8117
rfemur -20.7702 1.60326 25.5182
rtibia 35.9364
rfoot -17.4222 -3.72295
rtoes -0.76364
lfemur -27.0612 0.830862 -8.21008
ltibia 73.5818
lfoot -12.1137 -23.8164
ltoes 4.67614
409
root 15.3734 17.399 -2.40804 1.08335 34.3928 -5.85745
lowerback 22.9303 -0.221612 5.70027
upperback 4.98978 1.50871 3.60492
thorax -7.25994 0.70747 0.240831
lowerneck -4.63435 1.78413 8.89653
upperneck -0.0478813 2.10902 -11.7597
head 0.976558 0.927144 -4.95079
rclavicle 3.26007e-014 2.94201e-014
rhumerus -51.8854 0.653823 -71.7314
rradius 33.4967
rwrist 17.8655
rhand -3.5923 -19.671
rfingers 7.12502
rthumb 22.1454 -48.4227
lclavicle 3.26007e-014 2.94201e-014
lhumerus -48.1837 -9.27006 83.4162
lradius 57.5345
lwrist -7.22457
lhand -10.9452 7.00261
lfingers 7.12502
lthumb 15.0733 36.4338
rfemur -20.4111 1.69569 25.6277
rtibia 36.1871
rfoot -17.9383 -3.74243
rtoes -0.847667
lfemur -28.0242 1.23988 -8.5464
ltibia 73.8012
lfoot -12.6428 -23.8054
ltoes 3.90236
410
root 15.4319 17.3955 -2.28768 1.12532 34.2159 -5.82734
lowerback 23.0328 -0.0359958 5.80059
upperback 4.88322 1.78018 3.55029
thorax -7.41635 0.828811 0.0465498
lowerneck -4.64295 1.71702 8.92606
upperneck -0.0102796 2.01837 -11.7288
head 0.979179 0.881555 -4.94862
rclavicle 4.01545e-014 4.92986e-014
rhumerus -51.0074 0.0447864 -71.6541
rradius 34.3004
rwrist 17.0931
rhand -7.16646 -19.7576
rfingers 7.12502
rthumb 18.7107 -48.8777
lclavicle 4.01545e-014 4.92986e-014
lhumerus -48.886 -8.98207 83.5229
lradius 55.7511
lwrist -7.02848
lhand -9.22419 6.94787
lfingers 7.12502
lthumb 16.7306 36.2469
rfemur -20.0032 1.73692 25.728
rtibia 36.3251
rfoot -18.3919 -3.72601
rtoes -1.03517
lfemur -28.9513 1.60204 -8.92197
ltibia 73.7593
lfoot -13.1991 -23.7161
ltoes 3.0705
